<svg width="60" height="61" viewBox="0 0 60 61" fill="none" xmlns="http://www.w3.org/2000/svg">
<g clip-path="url(#clip0)">
<path d="M29.9999 4.42969C21.618 4.42969 13.6126 6.03973 6.27424 8.96544C3.10185 10.2302 1.73778 10.8581 3.30845 13.8907L26.0204 57.7424C27.6919 60.9697 32.3081 60.9697 33.9796 57.7424L56.6916 13.8907C58.2622 10.8581 56.8982 10.2301 53.7258 8.96544C46.3872 6.03985 38.3819 4.42969 29.9999 4.42969Z" fill="#FFE78C"/>
<path d="M42.4305 31.4011C38.1851 31.4011 34.7437 34.8427 34.7437 39.0881C34.7437 42.4408 36.8909 45.2904 39.8846 46.3413L46.8849 32.8253C45.6279 31.9298 44.0914 31.4011 42.4305 31.4011Z" fill="#E15F76"/>
<path d="M20.9422 22.756C17.9403 19.7542 13.0733 19.7542 10.0714 22.756C9.55178 23.2757 9.1244 23.852 8.78467 24.4639L14.6722 35.8314C16.9074 36.0742 19.2287 35.3405 20.9423 33.6269C23.9442 30.625 23.9442 25.7579 20.9422 22.756Z" fill="#E15F76"/>
<path d="M35.956 16.7963C31.9389 18.0212 28.7882 21.15 27.5332 25.1531C27.1899 26.248 27.4381 27.4572 28.2398 28.2781C29.8693 29.9468 32.6817 29.2559 33.3591 27.0341C33.4091 26.8708 33.615 26.8193 33.7357 26.9401L35.4472 28.6517C36.3261 29.5306 37.751 29.5306 38.6298 28.6517L39.359 27.9224C40.2379 27.0435 40.2379 25.6186 39.359 24.7398L37.6475 23.0283C37.5267 22.9075 37.5781 22.7016 37.7415 22.6518C39.9511 21.9781 40.6465 19.1931 39.0131 17.5597C38.2134 16.7599 37.0379 16.4664 35.956 16.7963Z" fill="#FF6900"/>
<g opacity="0.15">
<path opacity="0.15" d="M30.5992 26.4736C30.462 26.4736 30.3232 26.4414 30.1933 26.3737C29.7629 26.1492 29.596 25.6183 29.8206 25.188C30.5686 23.7542 31.3954 22.5941 32.3482 21.6411C33.3011 20.6881 34.4613 19.8614 35.895 19.1136C36.3249 18.8889 36.856 19.0559 37.0807 19.4864C37.3052 19.9167 37.1383 20.4475 36.7079 20.6721C35.4352 21.3359 34.4157 22.0596 33.5912 22.8842C32.7666 23.7086 32.043 24.7282 31.3789 26.0011C31.2224 26.3014 30.916 26.4736 30.5992 26.4736Z" fill="#2F2F2F"/>
<path opacity="0.15" d="M36.9731 27.1447C36.7482 27.1447 36.5232 27.059 36.3515 26.8874L32.3483 22.8841C32.005 22.5408 32.005 21.9844 32.3483 21.6411C32.6916 21.298 33.248 21.298 33.5913 21.6411L37.5945 25.6444C37.9378 25.9877 37.9378 26.5442 37.5945 26.8874C37.423 27.059 37.198 27.1447 36.9731 27.1447Z" fill="#2F2F2F"/>
</g>
<path d="M33.265 47.1945C32.04 43.1775 28.9112 40.0268 24.9081 38.7717C23.8132 38.4284 22.6041 38.6766 21.7832 39.4783C20.1144 41.1078 20.8054 43.9201 23.0271 44.5977C23.1905 44.6476 23.2418 44.8535 23.1211 44.9742L21.4096 46.6857C21.1156 46.9797 20.9222 47.3354 20.825 47.7108L22.4556 50.8594C23.3323 51.4636 24.5414 51.3774 25.3213 50.5976L27.0328 48.886C27.1537 48.7653 27.3596 48.8167 27.4094 48.98C28.0831 51.1896 30.868 51.885 32.5014 50.2516C33.3013 49.4519 33.5949 48.2763 33.265 47.1945Z" fill="#FF6900"/>
<g opacity="0.15">
<path opacity="0.15" d="M30.1695 48.4195C29.8525 48.4195 29.5464 48.2474 29.3896 47.947C28.7254 46.6739 28.0018 45.6544 27.1775 44.8301C26.3531 44.0057 25.3335 43.2821 24.0606 42.6178C23.6303 42.3933 23.4635 41.8624 23.688 41.432C23.9125 41.0018 24.4435 40.8347 24.8738 41.0594C26.3077 41.8075 27.4679 42.6344 28.4205 43.5871C29.3732 44.5397 30.2 45.6998 30.9482 47.1337C31.1728 47.5641 31.0059 48.095 30.5756 48.3195C30.4456 48.3874 30.3065 48.4195 30.1695 48.4195Z" fill="#2F2F2F"/>
<path opacity="0.15" d="M23.7956 49.0908C23.5707 49.0908 23.3457 49.005 23.1742 48.8335C22.8309 48.4901 22.8309 47.9337 23.1742 47.5904L27.1774 43.5872C27.5207 43.2441 28.0772 43.2441 28.4203 43.5872C28.7636 43.9305 28.7636 44.4869 28.4203 44.8302L24.4171 48.8335C24.2455 49.0049 24.0205 49.0908 23.7956 49.0908Z" fill="#2F2F2F"/>
</g>
<g opacity="0.1">
<path opacity="0.1" d="M42.2018 36.051C42.6629 36.051 43.0366 35.6773 43.0366 35.2162C43.0366 34.7551 42.6629 34.3813 42.2018 34.3813C41.7407 34.3813 41.3669 34.7551 41.3669 35.2162C41.3669 35.6773 41.7407 36.051 42.2018 36.051Z" fill="#2F2F2F"/>
<path opacity="0.1" d="M13.4943 26.4287C13.9553 26.4287 14.3291 26.055 14.3291 25.5939C14.3291 25.1328 13.9553 24.759 13.4943 24.759C13.0332 24.759 12.6594 25.1328 12.6594 25.5939C12.6594 26.055 13.0332 26.4287 13.4943 26.4287Z" fill="#2F2F2F"/>
<path opacity="0.1" d="M17.2877 31.947C17.7488 31.947 18.1226 31.5733 18.1226 31.1122C18.1226 30.6511 17.7488 30.2773 17.2877 30.2773C16.8267 30.2773 16.4529 30.6511 16.4529 31.1122C16.4529 31.5733 16.8267 31.947 17.2877 31.947Z" fill="#2F2F2F"/>
</g>
<g opacity="0.2">
<path opacity="0.2" d="M37.922 38.3362C38.3831 38.3362 38.7568 37.9624 38.7568 37.5013C38.7568 37.0403 38.3831 36.6665 37.922 36.6665C37.4609 36.6665 37.0872 37.0403 37.0872 37.5013C37.0872 37.9624 37.4609 38.3362 37.922 38.3362Z" fill="white"/>
<path opacity="0.2" d="M39.184 41.8389C39.645 41.8389 40.0188 41.4651 40.0188 41.004C40.0188 40.543 39.645 40.1692 39.184 40.1692C38.7229 40.1692 38.3491 40.543 38.3491 41.004C38.3491 41.4651 38.7229 41.8389 39.184 41.8389Z" fill="white"/>
<path opacity="0.2" d="M18.9574 26.4287C19.4185 26.4287 19.7922 26.055 19.7922 25.5939C19.7922 25.1328 19.4185 24.759 18.9574 24.759C18.4963 24.759 18.1226 25.1328 18.1226 25.5939C18.1226 26.055 18.4963 26.4287 18.9574 26.4287Z" fill="white"/>
</g>
<path opacity="0.1" d="M53.7257 8.96544C46.3872 6.03985 38.3819 4.42969 29.9999 4.42969C21.618 4.42969 13.6126 6.03973 6.27424 8.96544C3.10185 10.2302 1.73778 10.8581 3.30845 13.8907L26.0204 57.7424C27.6919 60.9697 32.3081 60.9697 33.9796 57.7424L35.0937 55.5913C26.1065 50.6984 19.7117 30.7857 17.2435 17.158C21.3351 16.1741 25.6063 15.6516 29.9999 15.6516C37.9975 15.6516 45.5918 17.3781 52.4307 20.4783C52.6694 20.5865 52.9151 20.661 53.1623 20.7046L56.6914 13.8906C58.2621 10.8581 56.898 10.2302 53.7257 8.96544Z" fill="#2F2F2F"/>
<path d="M30.0001 0.162842C20.0909 0.162842 10.6895 2.33292 2.2417 6.22051C0.682748 6.93782 0.0497 8.82231 0.838959 10.3461L3.63107 15.7371C4.37217 17.1681 6.10245 17.7567 7.57011 17.0913C14.4088 13.9908 22.0025 12.2633 30.0001 12.2633C37.9977 12.2633 45.5919 13.9898 52.4309 17.09C53.8985 17.7553 55.6287 17.1667 56.3698 15.7358L59.1612 10.3461C59.9504 8.82231 59.3174 6.93793 57.7585 6.22051C49.3106 2.33292 39.9092 0.162842 30.0001 0.162842Z" fill="#9B6A57"/>
<path opacity="0.1" d="M15.8721 1.66968C11.1196 2.69894 6.55612 4.23503 2.24174 6.22055C0.68279 6.93785 0.0497416 8.82235 0.838884 10.3461L3.63112 15.7371C4.37221 17.1681 6.10249 17.7567 7.57015 17.0912C11.2446 15.4253 15.1372 14.1565 19.1931 13.3384C14.118 11.9663 13.3353 4.23023 15.8721 1.66968Z" fill="#2F2F2F"/>
<path d="M23.1528 7.20179C22.6674 7.20179 22.2739 6.80839 22.2739 6.32288V5.18628C22.2739 4.70077 22.6674 4.30737 23.1528 4.30737C23.6382 4.30737 24.0317 4.70077 24.0317 5.18628V6.32288C24.0317 6.80839 23.6382 7.20179 23.1528 7.20179Z" fill="#595959"/>
<path d="M36.8474 7.20179C36.3619 7.20179 35.9685 6.80839 35.9685 6.32288V5.18628C35.9685 4.70077 36.3619 4.30737 36.8474 4.30737C37.3329 4.30737 37.7263 4.70077 37.7263 5.18628V6.32288C37.7263 6.80839 37.3328 7.20179 36.8474 7.20179Z" fill="#595959"/>
<path d="M30.0001 8.07464C29.0541 8.07464 28.1546 7.66506 27.5322 6.95081C27.2133 6.58483 27.2514 6.02971 27.6174 5.71073C27.9834 5.39174 28.5385 5.42995 28.8575 5.79592C29.146 6.12698 29.5625 6.31682 30.0002 6.31682C30.4378 6.31682 30.8544 6.12698 31.143 5.79592C31.4619 5.43006 32.017 5.39174 32.383 5.71085C32.7489 6.02971 32.7869 6.58495 32.468 6.95081C31.8454 7.66506 30.9459 8.07464 30.0001 8.07464Z" fill="#595959"/>
</g>
<defs>
<clipPath id="clip0">
<rect width="60" height="60" fill="white" transform="translate(0 0.162842)"/>
</clipPath>
</defs>
</svg>
