<svg width="60" height="61" fill="none" xmlns="http://www.w3.org/2000/svg"><g clip-path="url(#clip0)"><path d="M30 4.43A63.923 63.923 0 006.274 8.965c-3.172 1.265-4.536 1.893-2.966 4.926L26.02 57.742c1.672 3.228 6.288 3.228 7.96 0l22.712-43.851c1.57-3.033.206-3.66-2.966-4.926A63.927 63.927 0 0030 4.43z" fill="#FFE78C"/><path d="M42.43 31.401a7.687 7.687 0 00-2.545 14.94l7-13.516a7.65 7.65 0 00-4.454-1.424zm-21.488-8.645a7.687 7.687 0 00-12.157 1.708l5.887 11.367a7.687 7.687 0 006.27-13.075z" fill="#E15F76"/><path d="M35.956 16.796a12.713 12.713 0 00-8.423 8.357c-.343 1.095-.095 2.304.707 3.125 1.63 1.669 4.442.978 5.12-1.244a.226.226 0 01.376-.094l1.711 1.712a2.25 2.25 0 003.183 0l.729-.73a2.25 2.25 0 000-3.182l-1.712-1.712a.226.226 0 01.095-.376c2.21-.674 2.905-3.459 1.271-5.092a3.06 3.06 0 00-3.057-.764z" fill="#FF6900"/><g opacity=".15" fill="#2F2F2F"><path opacity=".15" d="M30.6 26.474a.879.879 0 01-.779-1.286c.748-1.434 1.574-2.594 2.527-3.547.953-.953 2.113-1.78 3.547-2.527a.879.879 0 11.813 1.558c-1.273.664-2.292 1.388-3.117 2.212-.824.825-1.548 1.844-2.212 3.117a.879.879 0 01-.78.473z"/><path opacity=".15" d="M36.973 27.145a.877.877 0 01-.621-.258l-4.004-4.003a.879.879 0 111.243-1.243l4.003 4.003a.879.879 0 01-.62 1.5z"/></g><path d="M33.265 47.194a12.714 12.714 0 00-8.357-8.422c-1.095-.344-2.304-.095-3.125.706-1.669 1.63-.978 4.442 1.244 5.12.163.05.215.255.094.376l-1.711 1.712c-.294.294-.488.65-.585 1.025l1.63 3.148a2.25 2.25 0 002.866-.261l1.712-1.712c.12-.12.327-.07.376.094.674 2.21 3.459 2.905 5.092 1.272a3.06 3.06 0 00.764-3.058z" fill="#FF6900"/><g opacity=".15" fill="#2F2F2F"><path opacity=".15" d="M30.17 48.42a.879.879 0 01-.78-.473c-.665-1.273-1.388-2.293-2.213-3.117-.824-.824-1.843-1.548-3.116-2.212a.879.879 0 01.813-1.559c1.434.748 2.594 1.575 3.547 2.528.952.953 1.779 2.113 2.527 3.547a.879.879 0 01-.779 1.285z"/><path opacity=".15" d="M23.796 49.09a.879.879 0 01-.621-1.5l4.002-4.003a.88.88 0 011.243 1.243l-4.003 4.004a.877.877 0 01-.621.257z"/></g><path opacity=".1" d="M42.202 36.051a.835.835 0 100-1.67.835.835 0 000 1.67zm-28.708-9.622a.835.835 0 100-1.67.835.835 0 000 1.67zm3.794 5.518a.835.835 0 100-1.67.835.835 0 000 1.67z" fill="#2F2F2F"/><path opacity=".2" d="M37.922 38.336a.835.835 0 100-1.67.835.835 0 000 1.67zm1.262 3.503a.835.835 0 100-1.67.835.835 0 000 1.67zm-20.227-15.41a.835.835 0 100-1.67.835.835 0 000 1.67z" fill="#fff"/><path opacity=".1" d="M53.726 8.965A63.926 63.926 0 0030 4.43 63.923 63.923 0 006.274 8.965c-3.172 1.265-4.536 1.893-2.966 4.926L26.02 57.742c1.672 3.228 6.288 3.228 7.96 0l1.114-2.15c-8.988-4.894-15.382-24.806-17.85-38.434A54.501 54.501 0 0130 15.652a54.19 54.19 0 0122.43 4.826c.24.108.485.183.732.227l3.53-6.814c1.57-3.033.206-3.66-2.966-4.926z" fill="#2F2F2F"/><path d="M30 .163c-9.91 0-19.31 2.17-27.758 6.058C.682 6.938.05 8.822.839 10.346l2.792 5.391a3.023 3.023 0 003.94 1.354A54.181 54.181 0 0130 12.263a54.19 54.19 0 0122.43 4.827 3.023 3.023 0 003.939-1.354l2.791-5.39c.79-1.524.156-3.408-1.403-4.125C49.311 2.333 39.91.163 30 .163z" fill="#9B6A57"/><path opacity=".1" d="M15.872 1.67a66.012 66.012 0 00-13.63 4.55C.682 6.939.05 8.823.839 10.347l2.792 5.391a3.022 3.022 0 003.94 1.354 53.987 53.987 0 0111.622-3.753c-5.075-1.372-5.858-9.108-3.32-11.668z" fill="#2F2F2F"/><path d="M23.153 7.202a.879.879 0 01-.88-.88V5.187a.879.879 0 111.759 0v1.137a.879.879 0 01-.88.879zm13.694 0a.879.879 0 01-.879-.88V5.187a.879.879 0 111.758 0v1.137a.879.879 0 01-.879.879zM30 8.075c-.946 0-1.845-.41-2.468-1.124a.879.879 0 111.326-1.155 1.516 1.516 0 002.285 0 .879.879 0 111.325 1.155A3.274 3.274 0 0130 8.075z" fill="#595959"/></g><defs><clipPath id="clip0"><path fill="#fff" transform="translate(0 .163)" d="M0 0h60v60H0z"/></clipPath></defs></svg>